<svg viewBox="0 0 80 35.2448" xmlns="http://www.w3.org/2000/svg" fill="none" customFrame="#000000">
	<g id="logo">
		<path id="Dignity" d="M57.6358 8.42804L57.6358 5.74036L59.8258 5.74036L59.8258 0L62.6462 0L62.6462 5.74036L64.7698 5.74036L64.7698 8.46122L62.6462 8.46122L62.6462 17.9842C62.6462 19.5548 63.2877 20.4286 64.5707 20.6056C64.814 20.6498 65.0574 20.6719 65.3007 20.6719L65.7653 20.6719L66.3957 23.4923L65.2012 23.4923C62.4803 23.4702 60.8102 22.4526 60.1908 20.4397C59.9696 19.6875 59.859 18.7585 59.859 17.6524L59.8258 8.42804L57.6358 8.42804ZM0 23.4923L0 0.26545L2.88677 0.26545L2.88677 23.4923L0 23.4923ZM4.54583 23.4923L4.54583 20.6387C6.80216 20.6387 8.31744 20.2848 9.09166 19.5769C9.75529 18.9576 10.0871 18.0838 10.0871 16.9556L10.0871 6.80216Q10.0871 5.61105 9.52945 4.80644Q8.72004 3.63857 6.7358 3.28494Q5.80672 3.11904 4.54583 3.11904L4.54583 0.26545Q9.5299 0.26545 11.6077 2.72281L11.6077 2.72283Q11.9921 3.1775 12.2771 3.7163C12.7637 4.60113 13.0071 5.62975 13.0071 6.80216L13.0071 16.9556C13.0071 21.1143 10.4742 23.2932 5.40854 23.4923L4.54583 23.4923ZM15.8275 3.08586C15.8275 2.40011 16.1482 1.91345 16.7897 1.62588Q17.1215 1.49316 17.4533 1.49316C18.117 1.49316 18.6036 1.80285 18.9133 2.42223Q19.046 2.75404 19.046 3.08586C19.046 3.74948 18.7363 4.23614 18.117 4.54583C17.8958 4.63432 17.6745 4.67856 17.4533 4.67856C16.7676 4.67856 16.2699 4.36887 15.9602 3.74948C15.8717 3.52827 15.8275 3.30707 15.8275 3.08586ZM52.3268 3.08586C52.3268 2.40011 52.6476 1.91345 53.2891 1.62588C53.5103 1.5374 53.7315 1.49316 53.9527 1.49316C54.6163 1.49316 55.103 1.80285 55.4127 2.42223C55.5012 2.64344 55.5454 2.86465 55.5454 3.08586C55.5454 3.74948 55.2357 4.23614 54.6163 4.54583C54.3951 4.63432 54.1739 4.67856 53.9527 4.67856C53.267 4.67856 52.7693 4.36887 52.4596 3.74948C52.3711 3.52827 52.3268 3.30707 52.3268 3.08586ZM21.4019 29.6309L22.0987 27.0427L28.3368 27.0427C29.5756 26.9985 30.4825 26.5118 31.0577 25.5827C31.2346 25.2731 31.3231 24.9965 31.3231 24.7532L31.3231 22.3642C30.4162 23.0057 29.5092 23.3485 28.6022 23.3928L28.6022 20.8378C29.5756 20.8378 30.3498 20.4286 30.9249 19.6101C31.1904 19.2341 31.3231 18.858 31.3231 18.482L31.3231 10.3526C31.3231 9.51196 30.8586 8.84834 29.9295 8.36168C29.4871 8.14047 29.0447 8.02986 28.6022 8.02986L28.6022 5.40854Q29.4189 5.40854 30.1264 5.68649L30.1265 5.68651Q30.7125 5.91673 31.2236 6.33762C31.2678 6.35974 31.301 6.38186 31.3231 6.40398L31.3231 5.40854L34.0108 5.40854L34.0108 24.7532C34.0108 25.7044 33.5794 26.6888 32.7167 27.7063C31.6328 28.9672 30.2945 29.6087 28.7018 29.6309L21.4019 29.6309ZM21.7337 18.5151L21.7337 10.2198Q21.7348 10.1682 21.7374 10.1167L21.7375 10.1149Q21.8127 8.61004 23.1273 7.16715C24.2113 6.01687 25.5496 5.43067 27.1423 5.40854L27.1423 8.02986C26.0583 8.02986 25.2399 8.4944 24.6869 9.42348C24.4878 9.75529 24.3882 10.0539 24.3882 10.3194L24.3882 18.482C24.3882 19.1456 24.7311 19.7318 25.4168 20.2406Q25.7253 20.4551 26.0662 20.583Q26.5689 20.7715 27.1423 20.7715L27.1423 23.3928C25.1072 23.3707 23.5587 22.508 22.4969 20.8046C21.9881 19.9862 21.7337 19.223 21.7337 18.5151ZM36.5657 23.4923L36.5657 10.3857C36.5657 9.32393 37.0413 8.28425 37.9925 7.26669Q38.7827 6.46164 39.7403 6.01829Q40.914 5.47491 42.3393 5.47491L42.3393 8.22895Q41.3874 8.22895 40.6875 8.64891Q40.1431 8.97555 39.7511 9.5562C39.5078 9.93226 39.3862 10.3194 39.3862 10.7175L39.3862 23.4923L36.5657 23.4923ZM43.7993 8.22895L43.7993 5.47491C45.8565 5.47491 47.4603 6.30444 48.6105 7.9635C49.2299 8.82621 49.5396 9.63362 49.5396 10.3857L49.5396 23.4923L46.7192 23.4923L46.7192 10.7175C46.7192 10.0318 46.3763 9.42348 45.6906 8.89258C45.1376 8.45016 44.5071 8.22895 43.7993 8.22895ZM66.7275 5.54127L69.6806 5.54127L74.7242 19.5769L71.3065 29.7968L68.4861 29.7968L71.7379 19.5438L66.7275 5.54127ZM74.0606 13.2393L77.0801 5.54127L80 5.54127L75.5869 17.1215L75.2883 17.1215L74.0606 13.2393ZM16.0597 23.4923L16.0597 6.00581L18.847 6.00581L18.847 23.4923L16.0597 23.4923ZM52.5591 23.4923L52.5591 6.00581L55.3463 6.00581L55.3463 23.4923L52.5591 23.4923Z" fill="rgb(17,17,17)" fill-rule="evenodd" />
		<path id="Codes" d="M52.4074 24.9088L52.3929 35.1722L53.6559 35.1722L53.6559 24.9088L52.4074 24.9088ZM62.6127 27.5799C61.8095 28.0057 61.4078 28.659 61.4078 29.5397C61.4078 29.7332 61.4272 29.9171 61.4659 30.0913C61.6208 30.6817 62.0659 31.122 62.8015 31.4123C63.0047 31.4801 63.3337 31.5672 63.7886 31.6736C64.2144 31.7801 64.5241 31.8624 64.7177 31.9204C65.4822 32.1527 65.8645 32.4624 65.8645 32.8495C65.8645 33.1495 65.758 33.4108 65.5451 33.6334C65.2451 33.9431 64.8725 34.0979 64.4273 34.0979L64.4273 35.2448C64.9886 35.2448 65.4871 35.1141 65.9226 34.8528C66.6678 34.4076 67.0404 33.7205 67.0404 32.7914C67.0404 32.4527 66.9678 32.1479 66.8226 31.8769C66.5419 31.3639 66.0726 31.0397 65.4145 30.9043C64.3596 30.6526 63.6483 30.4494 63.2805 30.2945C62.7966 30.101 62.5547 29.8494 62.5547 29.5397Q62.5547 29.4657 62.5658 29.3934Q62.6005 29.1679 62.7434 28.959C62.9853 28.5912 63.3289 28.4074 63.7741 28.4074L63.7741 27.2751C63.387 27.2751 62.9999 27.3767 62.6127 27.5799ZM64.4128 27.2751L64.4128 28.4219C64.558 28.4219 64.7177 28.4558 64.8919 28.5235Q65.4257 28.7192 65.6324 29.095Q65.7629 29.3322 65.7629 29.6413L66.9097 29.4526C66.9097 29.0171 66.75 28.6009 66.4306 28.2041C65.9177 27.5847 65.2451 27.2751 64.4128 27.2751ZM35.9018 34.4318C35.505 34.006 35.3066 33.5366 35.3066 33.0237L35.3066 29.4671Q35.3066 28.9445 35.655 28.4074Q35.9469 27.9514 36.361 27.6863L36.361 27.6863L36.361 27.6863Q36.9356 27.3186 37.7455 27.3186L37.7455 28.4799Q37.4648 28.4799 37.2229 28.5767L37.2228 28.5767Q37.1019 28.6251 36.9906 28.6977Q36.6295 28.9494 36.5406 29.2753L36.5406 29.2753Q36.5115 29.3818 36.5115 29.4961L36.5115 33.0237C36.5115 33.1592 36.5502 33.2947 36.6277 33.4302Q36.7433 33.6313 36.9129 33.7627Q37.2331 34.0108 37.7455 34.0108L37.7455 35.1722Q36.957 35.1722 36.3812 34.8222Q36.1196 34.6632 35.9018 34.4318ZM39.0511 28.6801Q38.7912 28.4945 38.3987 28.4945L38.3987 27.3186Q38.7687 27.3186 39.1038 27.4267Q39.4524 27.5392 39.7633 27.7686Q40.2377 28.1324 40.4537 28.6124L40.4537 28.6124L40.4538 28.6124L40.4538 28.6124Q40.6343 29.0137 40.6343 29.4961L39.502 29.9316L39.502 29.5832C39.4923 29.4187 39.4536 29.259 39.3859 29.1042Q39.2622 28.8309 39.0511 28.6801ZM41.7231 33.0237L41.7231 29.4381Q41.7231 29.4018 41.7248 29.3656Q41.7555 28.721 42.3328 28.1025Q42.6614 27.7612 43.0616 27.5685L43.0617 27.5685L43.0617 27.5685Q43.5807 27.3186 44.22 27.3186L44.22 28.4945C43.649 28.4945 43.2522 28.7316 43.0296 29.2058C42.9618 29.351 42.928 29.4961 42.928 29.6413L42.928 32.835Q42.928 33.0062 42.9781 33.1611Q43.0853 33.4924 43.4215 33.7495C43.6538 33.9237 43.9199 34.0108 44.22 34.0108L44.22 35.1867Q43.4957 35.1867 42.9435 34.8784Q42.4444 34.5996 42.086 34.0689C41.844 33.7012 41.7231 33.3528 41.7231 33.0237ZM44.8442 35.1867L44.8442 34.0108Q45.226 34.0108 45.5006 33.8392Q45.7793 33.665 45.9475 33.314C46.0249 33.1592 46.0636 33.0092 46.0636 32.864L46.0636 29.6413Q46.0636 29.3673 45.9559 29.1456L45.9559 29.1456Q45.8297 28.8857 45.5555 28.6977C45.3426 28.5622 45.1006 28.4945 44.8297 28.4945L44.8297 27.3186Q45.5281 27.3186 46.0597 27.6163Q46.5448 27.888 46.891 28.4074C47.133 28.7654 47.254 29.109 47.254 29.4381L47.254 33.0237Q47.254 33.0823 47.2498 33.1407L47.2498 33.141L47.2498 33.141L47.2498 33.1414Q47.2034 33.7904 46.6443 34.4028Q46.3324 34.7401 45.948 34.9323L45.9479 34.9324Q45.4556 35.1786 44.8442 35.1867ZM54.8172 33.0237L54.8172 29.4235C54.8269 28.9784 55.0398 28.538 55.456 28.1025C55.9592 27.5896 56.5689 27.3283 57.2851 27.3186L57.2851 28.4654C56.8205 28.4654 56.4576 28.6687 56.1963 29.0751C56.0899 29.2493 56.0366 29.409 56.0366 29.5542L56.0366 30.5413L59.2884 30.5413L59.2884 29.5542Q59.2884 29.2921 59.1809 29.0861Q59.0205 28.7786 58.6206 28.5961C58.4174 28.4993 58.2093 28.4509 57.9964 28.4509L57.9964 27.3186Q58.3912 27.3186 58.7522 27.4291Q59.307 27.599 59.782 28.0299Q60.2979 28.5229 60.4154 29.0974Q60.4467 29.2503 60.4497 29.409L60.4497 31.7172L56.0366 31.7172L56.0366 33.0237C56.0366 33.2947 56.1915 33.5463 56.5012 33.7786C56.7528 33.9528 57.0189 34.0399 57.2996 34.0399L57.2996 35.1722C56.4189 35.1722 55.7269 34.8141 55.2237 34.0979Q54.8172 33.5318 54.8172 33.0237ZM48.2411 29.4381L48.2411 33.0237C48.2411 33.3431 48.3572 33.6866 48.5895 34.0544C49.0637 34.7996 49.7315 35.1722 50.5928 35.1722L51.6961 35.1722L51.6961 33.9963L50.5783 33.9963C50.3654 33.9963 50.1573 33.9286 49.9541 33.7931C49.6057 33.5705 49.4315 33.3044 49.4315 32.9947L49.4315 29.5106C49.4315 29.3655 49.4847 29.2106 49.5912 29.0461Q49.823 28.7162 50.1369 28.5889Q50.3342 28.509 50.5638 28.509L51.6961 28.509L51.6961 27.3331L50.5493 27.3331C49.9396 27.3331 49.4073 27.5509 48.9524 27.9864C48.4879 28.4316 48.2508 28.9154 48.2411 29.4381ZM39.1545 35.0771Q38.796 35.1923 38.3987 35.1867L38.3987 34.0108Q38.5417 34.0108 38.6791 33.9834L38.6791 33.9833Q38.765 33.9662 38.8487 33.9383Q39.1913 33.8241 39.3909 33.5887L39.3909 33.5886Q39.6227 33.3153 39.6617 32.8785L39.6762 32.8495L39.6762 32.5592L40.8085 32.9802Q40.8085 33.1586 40.7757 33.3308Q40.6671 33.9011 40.1988 34.4028Q39.726 34.8934 39.1546 35.0771L39.1545 35.0771ZM62.4821 32.8931L61.3353 33.1108C61.3353 33.4979 61.4562 33.8705 61.6982 34.2286C62.1627 34.906 62.8644 35.2448 63.8031 35.2448L63.8031 34.0979C63.5999 34.0883 63.387 34.0302 63.1644 33.9237C62.7095 33.6721 62.4821 33.3286 62.4821 32.8931ZM57.9964 35.1722L57.9964 34.0254C58.5771 34.0254 59.0126 33.7737 59.3029 33.2705Q59.39 33.1108 59.4336 32.9656L60.4642 33.3431C60.29 34.0108 59.8933 34.5141 59.2739 34.8528C58.8771 35.0657 58.4513 35.1722 57.9964 35.1722Z" fill="rgb(17,17,17)" fill-rule="evenodd" />
	</g>
</svg>
